PathFileType	4	(X/Y/Z)	C:/Users/beibeiliu/ov580/test_trc/capture2\sequence.4_training_dense_right.trc
DataRate	CameraRate	NumFrames	NumMarkers	Units	OrigDataRate	OrigDataStartFrame	OrigNumFrames
120	120	14	19	mm	120	311	355
Frame#	Time	ThumbCMC			ThumbMCP			ThumbIP			ThumbTip			IndexMCP			IndexPIP			IndexTip			MiddleMCP			MiddlePIP			MiddleTip			RingMCP			RingPIP			RingTip			PinkyMCP			PinkyPIP			PinkyTip			BackHand1			BackHand2			BackHand3	
		X0	Y0	Z0	X1	Y1	Z1	X2	Y2	Z2	X3	Y3	Z3	X4	Y4	Z4	X5	Y5	Z5	X6	Y6	Z6	X7	Y7	Z7	X8	Y8	Z8	X9	Y9	Z9	X10	Y10	Z10	X11	Y11	Z11	X12	Y12	Z12	X13	Y13	Z13	X14	Y14	Z14	X15	Y15	Z15	X16	Y16	Z16	X17	Y17	Z17	X18	Y18	Z18	
310	2.58333	101.817	32.9991	-17.2976	80.6044	10.3091	-29.3763	64.3405	-5.73017	-47.359	78.8394	-25.4748	-64.6398	95.8478	27.8396	-91.3649	85.1732	21.1976	-107.644	77.2318	12.6707	-128.32	100.009	-3.81219	-83.1384	80.6317	-20.945	-65.8957	93.8025	-1.517	-36.1512	110.816	-21.7118	-73.189	89.3861	-25.7287	-48.2131	102.93	-5.7676	-25.7833	120.093	-32.7224	-63.9126	102.326	-28.948	-40.049	116.564	-6.84646	-21.1748	151.769	12.0958	-52.4206	162.181	18.3387	-22.4484	136.21	37.6285	-38.9249	
311	2.59167	103.605	29.6518	-17.4367	78.8966	8.10695	-26.3677	69.8606	-9.64547	-45.877	78.4438	-30.5254	-63.6843	98.4958	23.2171	-90.7616	85.6216	16.511	-107.525	74.8361	8.86389	-133.026	98.6545	-6.80515	-83.5801	81.843	-24.8429	-64.9454	95.5589	-7.14056	-36.1881	110.436	-21.8485	-72.3777	92.4034	-31.1597	-46.5058	105.639	-8.69805	-24.7017	126.305	-34.1104	-62.5183	107.198	-37.003	-37.7162	116.306	-9.19385	-22.554	152.093	9.3248	-50.4356	163.643	17.1733	-23.6144	136.714	35.8366	-37.2414	
312	2.6	101.889	27.486	-15.7149	78.9805	3.75917	-27.8307	67.4387	-16.4455	-48.1419	83.8874	-35.8269	-63.8629	95.4647	20.7898	-91.305	85.4299	10.7789	-110.519	78.997	3.5008	-128.936	100.909	-9.86278	-83.2847	82.3153	-27.7139	-63.6874	96.6887	-9.96372	-36.0025	110.942	-28.7646	-72.0719	95.5917	-34.7535	-47.7678	106.883	-10.7542	-23.968	124	-35.0206	-62.4794	108.454	-35.6556	-38.3277	122.644	-10.867	-19.2203	156.811	7.71146	-51.0445	160.645	19.6672	-25.0509	134.361	37.8534	-39.9076	
313	2.60833	102.526	23.632	-18.9435	77.6866	-0.428427	-27.2293	68.6226	-20.0977	-47.1529	82.8072	-40.6899	-65.2892	100.09	15.5706	-89.7521	84.0868	8.75479	-110.011	79.6881	-0.191266	-129.964	105.664	-16.7274	-83.4354	87.3941	-32.6682	-63.268	98.1373	-12.9419	-34.5282	118.584	-30.2725	-72.0692	99.3105	-39.9185	-47.5111	108.42	-16.8617	-23.5592	127.844	-38.0268	-61.6288	110.208	-37.2204	-37.426	122.806	-15.3845	-17.8111	153.336	7.33104	-52.7151	166.274	17.9706	-20.59	136.14	34.1222	-38.1158	
314	2.61667	99.5656	23.2429	-14.0836	81.3548	-4.25224	-25.3693	74.5936	-25.8743	-49.4627	87.8378	-43.1945	-64.8171	98.2628	14.0536	-91.5196	87.1675	6.45682	-108.258	82.0664	-5.72349	-129.782	106.319	-16.9418	-82.5765	88.3842	-34.9574	-60.6967	102.617	-19.1424	-34.2512	119.052	-32.0382	-71.5407	101.219	-40.7913	-49.3617	108.756	-16.7378	-24.0518	132.589	-35.1034	-62.1747	113.987	-40.964	-39.2507	119.65	-15.3087	-20.8481	156.47	5.38675	-51.5783	160.687	19.5943	-22.1168	132.881	34.2755	-36.516	
315	2.625	103.159	20.389	-13.6774	83.0364	-7.2044	-25.163	76.8924	-27.6963	-46.2885	87.2019	-46.9153	-64.8283	101.627	10.5928	-89.4833	93.0408	0.584735	-107.299	83.1171	-10.0379	-132.791	109.129	-16.6417	-81.608	93.8175	-39.688	-61.756	100.856	-19.7861	-34.5766	121.327	-35.6801	-71.5595	105.579	-44.3819	-49.616	110.544	-18.7889	-23.7757	133.947	-40.38	-61.7938	117.171	-42.1233	-38.8977	126.019	-15.2122	-19.1471	156.722	7.32186	-51.3886	163.421	19.1655	-19.7484	134.818	33.6337	-38.3028	
316	2.63333	102.609	19.1671	-13.9967	86.953	-10.5144	-28.0804	77.7929	-29.578	-44.6469	92.2696	-49.1847	-64.2719	99.8468	8.15428	-91.0695	90.3092	-3.08555	-110.12	88.3388	-15.1606	-130.815	109.491	-19.5816	-81.2098	96.7187	-41.8737	-65.3329	106.901	-23.2736	-32.8314	123.771	-34.5347	-70.1916	109.449	-47.5442	-46.5054	116.918	-22.4741	-20.4903	137.265	-41.0228	-60.241	121.799	-46.8783	-39.3113	127.52	-18.1799	-17.2806	159.417	8.68918	-46.3672	166.346	21.9748	-17.6534	132.769	33.4748	-37.7749	
317	2.64167	102.855	14.1618	-17.0296	84.8818	-14.7659	-30.4221	80.609	-36.9505	-50.3164	100.635	-48.9862	-61.9741	103.798	5.78537	-91.0764	96.3678	-4.9726	-107.829	91.3434	-16.2417	-127.886	114.283	-25.7848	-82.3513	103.273	-45.9504	-61.939	110.562	-24.0361	-32.9827	128.506	-31.8664	-70.3219	113.377	-49.0212	-44.2772	117.659	-22.9251	-22.0135	144.076	-41.7232	-60.0319	125.406	-47.5122	-37.5618	127.065	-19.8669	-21.0242	161.827	6.53188	-50.1535	167.425	20.6625	-19.8619	133.601	29.822	-37.4868	
318	2.65	103.968	13.2347	-19.7322	88.6778	-15.2166	-27.85	86.3068	-38.4272	-49.9312	103.012	-52.2793	-61.8415	108.324	3.15115	-90.986	100.406	-9.93755	-110.817	96.0268	-20.7295	-132.275	119.216	-27.0797	-81.7293	104.059	-46.0185	-64.6439	111.607	-24.6853	-32.2218	133.776	-35.3706	-69.2769	114.526	-48.6077	-45.4277	117.847	-23.1911	-22.5319	147.519	-42.8316	-59.0199	131.285	-50.0737	-34.5957	130.498	-20.3896	-19.8142	159.665	8.62346	-48.0039	165.519	19.7845	-19.9957	137.523	27.7773	-37.7175	
319	2.65833	104.372	13.0803	-15.0921	91.7859	-18.1117	-29.8697	87.3436	-39.781	-49.3656	103.588	-56.2659	-63.5865	111.757	1.95164	-88.695	103.134	-10.1349	-107.733	95.265	-20.9306	-132.44	120.597	-23.7887	-81.1259	106.648	-47.2344	-62.0515	110.881	-29.0181	-34.0012	131.943	-37.4543	-70.0269	121.265	-51.9323	-45.2715	123.84	-24.6419	-21.5393	151.948	-40.3745	-57.7679	134.239	-49.2693	-35.879	132.66	-22.7962	-18.5633	161.689	8.22361	-48.4257	169.322	21.0664	-17.4559	137.746	28.6635	-36.0642	
320	2.66667	105.642	11.1924	-20.4052	93.8715	-18.4118	-29.1712	91.8874	-40.2387	-48.0804	107.636	-56.2373	-64.1129	114.467	-0.510899	-90.5451	103.273	-11.2427	-110.172	101.002	-23.1362	-130.574	122.554	-27.9695	-82.4641	110.271	-49.0251	-64.6499	114.54	-28.3513	-33.579	139.592	-39.997	-69.11	125.585	-52.4801	-44.1254	126.202	-26.2171	-21.1149	153.514	-38.7295	-58.7161	136.423	-49.4355	-37.4472	136.423	-20.8636	-16.8708	163.143	8.74259	-47.2238	169.122	20.4486	-16.8166	138.111	30.6738	-34.4739	
321	2.675	107.785	11.7191	-17.1285	95.8379	-18.248	-29.2072	92.1956	-41.357	-49.3672	112.189	-57.2154	-65.1815	115.864	-0.0382257	-90.0446	108.809	-15.5925	-112.444	104.64	-25.6065	-130.648	129.593	-30.3659	-82.0487	117.458	-50.2524	-63.5301	120.874	-29.6375	-32.5656	140.222	-35.7639	-69.5648	127.347	-52.1984	-45.0984	126.285	-29.913	-23.8152	154.103	-41.9918	-57.7641	139.707	-49.526	-35.366	138.427	-20.3189	-18.0866	167.23	10.7127	-47.7768	170.886	23.2369	-20.0102	142.799	27.9672	-37.2746	
322	2.68333	108.399	9.86566	-19.9688	100.834	-19.7341	-31.4796	97.4802	-42.4967	-50.804	114.878	-54.5421	-63.0367	120.057	-0.742394	-89.1397	110.642	-14.5276	-112.538	111.779	-27.8852	-130.839	129.028	-28.2849	-82.33	117.84	-50.5435	-63.4759	120.998	-27.8245	-32.1802	144.349	-38.9372	-69.5743	130.772	-51.1852	-44.2601	130.714	-26.8425	-22.5994	160.76	-43.4661	-57.9345	143.475	-48.9137	-38.192	144.615	-19.9645	-16.9771	172.143	8.92445	-48.2137	173.492	22.8956	-20.9303	144.135	28.7739	-34.0344	
323	2.69167	110.945	7.9233	-18.1174	102.666	-22.245	-33.5528	101.59	-41.4127	-48.7681	118.677	-57.3868	-66.5416	120.848	-1.03407	-91.9824	116.119	-15.3996	-113.195	113.178	-29.0722	-134.636	136.008	-26.8464	-82.3767	121.323	-51.0826	-62.8446	123.528	-32.9326	-34.4408	150.195	-36.0439	-70.2883	132.711	-50.8895	-47.078	135.653	-30.366	-22.6024	164.216	-41.7388	-58.4718	145.144	-48.3316	-37.5537	145.201	-21.3204	-16.6646	168.654	12.3598	-47.739	171.012	24.889	-20.4075	141.635	31.1509	-33.5713	
